<?xml version="1.0" encoding="UTF-8" standalone="no"?>
<!-- Created with Inkscape (http://www.inkscape.org/) -->

<svg
   version="1.1"
   id="svg1"
   width="5333.3335"
   height="5333.3335"
   viewBox="0 0 5333.3335 5333.3335"
   xmlns="http://www.w3.org/2000/svg"
   xmlns:svg="http://www.w3.org/2000/svg">
  <defs
     id="defs1" />
  <g
     id="g1">
    <g
       id="g4"
       transform="translate(-168)">
      <path
         style="fill:#000080;stroke:none"
         d="m 2695.8995,478.81659 1.3333,1.3334 -1.3333,-1.3334 m -4,1.3334 1.3333,1.3333 -1.3333,-1.3333 m -4,1.3333 1.3333,1.3333 -1.3333,-1.3333 m -8,2.6667 1.3333,1.3333 -1.3333,-1.3333 m -4,1.3333 1.3333,1.3333 -1.3333,-1.3333 m -4,1.3333 c -51.9606,24.3037 -101.7796,47.1996 -149.3333,80.0339 -90.2024,62.2819 -168.0639,142.7165 -248.0001,217.1803 -105.1443,97.946 -209.5161,196.7214 -314.6666,294.66671 -296.4004,276.0905 -591.6099,553.4727 -888.0001,829.5717 -126.7688,118.0901 -251.5301,238.5309 -380,354.7737 -49.5661,44.8487 -96.85,92.2816 -145.31378,138.32 -47.1864,44.8249 -101.36831,93.2357 -128.94135,153.4538 -15.35646,33.5378 -25.70575,70.9549 -25.70575,108 0,123.5111 91.74012,254.9632 218.62758,272.9525 65.3987,9.2721 135.0856,-15.0163 194.6667,-39.6048 99.0214,-40.8649 173.4143,-113.267 250.6666,-185.2284 67.6626,-63.0282 136.3423,-124.9744 204,-188.0002 223.2495,-207.9655 447.421,-414.9427 670.6667,-622.9049 105.3786,-98.1641 209.1997,-198.1381 316,-294.7738 97.6905,-88.3929 189.6664,-183.5384 294.6667,-263.6195 60.9079,-46.4528 128.4816,-91.7441 204,-109.6419 98.9595,-23.4535 190.7038,10.0225 273.3334,63.6966 110.7923,71.9681 200.0276,166.8535 297.3333,254.8981 114.2367,103.3643 223.2848,212.4418 336,317.4405 312.3776,290.9918 618.208,589.0449 930.6667,880 29.707,27.6621 59.9974,54.7871 89.3333,82.8382 44.1491,42.2158 89.237,83.8913 146.6667,107.3447 123.236,50.3278 270.5108,28.8659 355.7191,-79.3971 15.5417,-19.7467 27.5951,-41.7526 36.21,-65.3333 10.4606,-28.6328 12.0709,-57.8614 12.0709,-88 h -1.3333 c 0,16.8071 -0.8893,32.0911 -6.9176,48 -9.6872,25.5644 -35.7387,48.4189 -58.4157,61.9375 -51.6833,30.8099 -105.6329,40.7838 -165.3334,36.612 -17.4996,-1.2234 -36.4007,-5.752 -53.319,-10.3562 -10.4365,-2.8401 -22.2471,-8.1484 -33.3476,-6.86 -6.1644,-7.8242 -15.9779,-8.9476 -24.5658,-12.54 -14.2516,-5.9616 -26.0358,-19.1869 -42.1009,-16.7933 l -4,-4 1.3333,-4 c -15.4212,-10.4512 -39.4206,-14.8633 -49.3333,-30.6667 l -4,1.3333 c -2.0427,-5.8694 -12.8223,-10.3574 -18.6667,-12 v -5.3333 l -9.3333,-8 -4,-4 -5.3333,1.3333 c -3.3259,-6.513 -8.4473,-11.1048 -16,-10.6666 l -2.6667,-8 h -1.3333 l -2.6667,2.6666 c -2.7344,-13.5216 -24.9463,-30.108 -37.3333,-34.6666 l 1.3333,-4 c -7.5492,-2.2279 -19.2416,-15.6556 -22.6667,-22.6667 l -2.6667,2.6667 -5.3333,-1.3334 c -0.7685,-4.6325 -2.0342,-5.8981 -6.6667,-6.6666 l -4,-8 -20,-10.6667 v -6.6667 c -10.1028,0.7414 -15.5468,-10.2259 -21.6119,-16.3816 -6.641,-6.7403 -14.3132,-10.1817 -19.7214,-18.285 l -2.6667,1.3333 v -6.6667 h -8 l -8,-16 -4,1.3334 c -1.749,-5.5378 -5.1438,-6.363 -10.6666,-6.6667 0.6754,-7.097 -1.4938,-12.127 -9.3334,-10.6667 -1.6227,-4.7373 -4.553,-5.7916 -9.3333,-6.6666 l 1.3333,-8 -13.3333,-9.3334 h -1.3333 l -2.6667,2.6667 -2.6667,-10.6667 h -6.6666 l 1.3333,-4 h -6.6667 l 1.3334,-6.6666 c -6.628,0.3645 -13.7058,-3.6719 -14.6667,-10.6667 l -10.1256,-9.4815 -21.8744,-15.8518 2.6667,1.3333 v -1.3333 l -6.6667,-2.6667 -1.3333,-6.6667 -4,1.3334 -1.3334,-5.3334 -5.3333,-1.3333 -5.3333,-5.3333 -18.6667,-22.6667 -2.6667,4 -1.3333,-6.6667 h -5.3333 v -1.3333 l 4,-1.3333 -25.3334,-24 -6.6666,-2.6667 -2.6667,-8 h -1.3333 l -6.6667,2.6667 c -0.694,-6.0072 -6.2962,-9.7631 -12,-10.6667 -2.1113,-6.4115 -8.6077,-9.7035 -14.6667,-12 v -6.6667 l -2.6666,4 h -1.3334 v -5.3333 l -10.6666,-4 2.6666,-4 h -9.3333 c -0.2213,-4.5697 1.4434,-8.7389 -4,-9.3333 v -4 l -2.6667,1.3333 -2.6666,-9.3333 -10.6667,-1.3334 1.3333,-8 h -8 c -1.1689,-4.263 -1.9622,-8.8095 -6.6666,-9.3333 v -5.3333 h -1.3334 l -6.6666,1.3333 1.3333,-4 -5.3333,-6.6667 -4,1.3334 -4,-12 -8,-4 -20,-12 1.3333,-2.6667 -6.6667,-4 1.3334,-4 -2.6667,-5.3333 c -12.404,-3.5935 -22.3571,-16.9981 -28,-28 l -4,1.3333 1.3333,-4 -5.3333,1.3333 -8,-13.3333 -4,2.6667 1.3333,-5.3334 h -9.3333 l 2.6667,-5.3333 h -8 l 1.3333,-6.6667 -12,-1.3333 -2.6667,-12 -8,4 c 1.4252,-8.4811 -7.0514,-12.4053 -14.6666,-12 l 1.3333,-4 -14.6667,-16 c -5.7223,-0.1084 -9.1943,-3.9346 -10.6666,-9.3333 l -12,-5.3334 c 0.4479,-6.8424 -1.9805,-12.1735 -9.3334,-9.3333 -0.3502,-4.5469 -0.9046,-6.5348 -5.3333,-8 l 1.3333,-5.3334 -12,-2.6666 v -6.6667 l -8,-1.3333 -2.6666,-6.6667 -5.3334,1.3333 1.3334,-5.3333 -20,-10.6667 v -5.3333 l -8,-6.6667 -21.3334,-25.3333 c -5.0732,0.1813 -6.8961,-5.041 -8,-9.3333 -8.957,1.2923 -13.2363,-8.721 -16,-16 l -4,2.6666 2.6667,-5.3333 -6.6667,1.3333 c -0.2646,-7.5986 -8.234,-15.3121 -14.6666,-18.6666 l 1.3333,4 h -1.3333 l -2.6667,-9.3334 -5.3333,2.6667 -8,-8 4,1.3333 v -1.3333 l -10.6667,-2.6667 v -6.6666 l -10.6667,-10.6667 -9.3333,-2.6667 -1.3333,-9.3333 -4,2.6667 -1.3334,-4 -5.3333,-4 -17.3333,-10.6667 -8,-9.3333 4,-2.6667 -1.3334,-1.3333 -4,2.6666 -21.3333,-24 -4,1.3334 v -5.3334 l -2.6667,-2.6666 -8,-2.6667 1.3334,-6.6667 -14.6667,-5.3333 c 0.9518,-5.25 0.6849,-9.0872 -5.3333,-9.3333 l -1.3334,-1.3334 1.3334,-2.6666 -9.3334,-9.3334 -5.3333,1.3334 -2.6667,-4 1.3334,-2.6667 -17.3334,-13.3333 v -6.6667 l -8,2.6667 4,-2.6667 v -1.3333 c -8.7106,-5.3109 -18.0696,-9.7028 -21.3333,-20 l -2.6667,2.6666 -8,-12 -2.6666,-2.6666 -8,1.3333 v -6.6667 l -9.3334,-12 -4,-4 -5.3333,1.3334 1.3333,-5.3334 -8,-1.3333 1.3334,-5.3333 -8,-8 -4,1.3333 v -8 l -5.3334,1.3333 -8,-14.6666 -9.3333,-2.6667 v -5.3333 l -4,1.3333 -1.3333,-8 -10.6667,-4 1.3333,-4 c -6.2138,-1.4189 -9.4332,-5.9349 -10.6666,-12 -4.2702,-0.3177 -7.3174,-0.7223 -8,-5.3333 -6.8008,-2.6927 -11.0459,-7.2559 -12,-14.6667 l -21.3334,-10.6667 -2.6666,-9.3333 -16,-10.6667 1.3333,-4 -9.3333,-2.6666 2.6666,-5.3334 -14.6667,-6.6666 c 3.1088,-7.2881 -0.4772,-13.7006 -8,-16 l 1.3334,-4 -21.3334,-12 -1.3333,-8 c -5.1907,-0.5482 -9.6458,-2.1983 -8,-8 l -5.3333,2.6666 1.3333,-4 c -6.7002,-1.8978 -10.3405,-7.2939 -13.3333,-13.3333 h -4 l -1.3334,4 h -1.3333 l 1.3333,-4 h -4 c -1.1946,-11.569 -12.5273,-17.3285 -18.6666,-26.6667 l -4,1.3334 c -4.9779,-8.2972 -12.4606,-17.0674 -21.3334,-21.3334 -1.0843,-5.638 -6.3981,-9.7607 -12,-10.6666 l -17.3333,-21.3334 -4,1.3334 -10.6667,-9.3334 1.3334,-5.3333 c -6.141,-3.3265 -11.0921,-7.9665 -13.3334,-14.6667 l -12,-4 4,-4 -4,-1.3333 c -1.1813,-7.7152 -6.6774,-9.4128 -13.3333,-12 l -5.3333,-10.6667 -4,1.3334 -21.3334,-25.3334 -18.6666,-10.6666 c 0.7728,-5.3952 -1.126,-8.0866 -6.6667,-8 -2.6435,-7.3838 -7.9834,-10.9242 -14.6667,-14.6667 -0.9964,-6.1012 -7.2317,-12.3366 -13.3333,-13.3333 -1.7249,-6.1237 -7.4131,-9.1293 -13.3333,-10.6667 l 1.3333,-2.6667 c -6.0677,-1.0114 -11.567,-8.3978 -10.6667,-12 l -27.9856,-23.428 -13.3477,-15.2386 -8,-1.3334 -1.3333,-5.3333 -6.6667,1.3333 c -0.3187,-8.1204 -12.4268,-16.1302 -20,-17.3333 -1.0934,-4.9577 -6.459,-6.3695 -10.04,-9.8386 -8.9571,-8.6774 -20.1162,-25.3798 -33.96,-24.8281 -2.7002,-11.2646 -12.7047,-18.5846 -24,-20 l -29.3333,-28 -9.3334,-4 h -6.6666 l 1.3333,-2.6666 c -27.1237,-10.2911 -49.3301,-34.7728 -78.6667,-40 l 1.3334,-4 -14.6667,-2.6667 -8,-8 -6.6667,2.6667 -1.3333,-4 -5.3333,1.3333 c -2.7852,-4.2341 -4.7286,-4.6634 -9.3334,-2.6667 l -2.6666,-4 -4,1.3334 -30.6667,-9.3334 -5.3333,-1.3333 -16,-5.3333 c -13.8018,0.6106 -28.3513,-4.9056 -42.1009,-6.3262 -29.9397,-3.0931 -68.1703,-2.5993 -96.9475,4.8623 -10.2531,2.6585 -25.5477,1.8213 -32.9516,10.7972 l -5.3334,-1.3333 -33.3333,9.3333 -16,8 -13.3333,8 h -6.6667 l -21.3333,16 -20,12 v 4 l -13.3334,5.3333 -20,17.3334 c -5.9757,0.2685 -8.5643,4.9518 -13.3857,8.1061 -12.5565,8.2151 -36.777,22.221 -42.6143,35.8939 l -26.6666,18.6666 -17.3334,20 -6.6667,5.3334 -2.6666,-1.3334 c -5.0497,6.7969 -12.2222,10.4193 -17.8745,16.4372 -15.3747,16.3688 -31.8125,32.237 -48.5308,47.2728 -8.0181,7.2113 -25.5363,18.8255 -26.9281,29.6234 l -24.5462,20.9518 -44.2542,42.2529 -19.1996,20.7953 -25.3476,21.4404 -61.7778,56.8838 -22.2079,23.0091 c -10.3716,1.3916 -18.0089,10.9336 -25.2262,17.8467 -13.9787,13.3896 -28.9138,25.8987 -42.3788,39.7633 -40.4155,41.6149 -85.1027,79.8461 -126.5205,120.4291 -17.3533,17.0035 -46.5955,33.2568 -57.8745,55.2942 l -13.5555,9.9815 -31.7778,28.6852 2.6666,2.6667 -10.6666,10.6666 c -9.6265,0.8848 -12.7259,10.586 -20.0577,15.5834 -23.5753,16.0693 -43.5751,39.1618 -63.9947,59.0504 -39.6858,38.6534 -82.7022,73.6781 -122.8705,111.8591 -28.584,27.1699 -54.7389,57.5788 -84.97,82.8249 -22.4955,18.7861 -43.6796,37.789 -64.7142,58.2604 -6.8345,6.6517 -20.7587,15.5117 -20.7263,25.7552 l -1.3333,1.3333 -4,-1.3333 -41.6461,39.0019 -17.0206,18.3314 c -15.9991,4.6836 -29.651,24.3708 -41.5926,35.3353 -6.1439,5.6413 -13.408,10.9867 -15.7407,19.3314 -8.4766,0.667 -16.8349,8.3021 -20,16 l -2.6667,-1.3333 -9.3333,9.3333 v 4 c -8.4422,0.012 -19.5426,12.335 -25.714,18.1243 -19.6606,18.4431 -39.0288,36.9131 -58.8189,55.0905 -53.689,49.3138 -106.823,99.2787 -161.9959,146.8038 -23.0544,19.8587 -46.4031,45.2885 -72.1379,61.3147 l 1.3333,5.3334 c -11.623,3.0602 -36.3921,18.5073 -38.6666,30.6666 -23.548,10.2925 -46.7286,32.5801 -66.4929,48.9455 -8.0089,6.6317 -22.7967,20.1773 -33.5071,20.3879 -7.6704,8.3021 -19.2274,11.0188 -29.2141,15.5625 -20.5214,9.3369 -46.4428,20.7832 -69.4526,20.4375 -5.2445,5.6702 -11.0889,4.2311 -18.1008,5.7142 -14.3915,3.0436 -29.203,5.8951 -44,5.5543 -31.7571,-0.7314 -62.0859,1.6 -93.3334,-7.5195 -11.5425,-3.3688 -23.2574,-11.3968 -33.8991,-16.9782 -12.2355,-6.4176 -28.76148,-13.1816 -36.00004,-25.4375 h -1.33334 v 4 h -1.33333 c -7.76408,-14.7614 -25.06352,-27.7585 -35.39298,-41.3333 -17.06519,-22.4268 -27.55091,-49.3189 -36.89303,-75.4341 -5.23348,-14.6297 -10.82097,-28.593 -11.37244,-44.5659 -2.90775,-84.2201 54.48771,-137.2972 109.75926,-192.5658 107.8103,-107.8044 219.4409,-213.0247 332.5659,-315.208 120.3795,-108.7363 235.9617,-222.8718 354.6666,-333.4405 275.0217,-256.1709 549.1277,-513.5172 825.3529,-768.34631 95.7168,-88.3028 191.7705,-177.0772 285.0679,-267.9457 83.9987,-81.8118 167.1859,-172.5446 274.9126,-223.8271 l -1.3333,-1.3334 m 477.3333,760.44441 c 1.0313,0 0.2133,0.6641 -0.4443,0.4447 l 0.4443,-0.4447 m 148,122.2223 1.3334,1.3334 -1.3334,-1.3334 m 55.5557,55.5557 -0.4447,0.8887 0.4447,-0.8887 m 91.111,92.4443 -1.3333,1.3334 1.3333,-1.3334 m 82.6667,77.3334 -1.3334,1.3333 1.3334,-1.3333 m 21.3333,20 -1.3333,1.3333 1.3333,-1.3333 m 37.3333,38.6666 4.0001,-2.6666 -4.0001,2.6666 m -901.3333,45.3334 1.3333,1.3333 -1.3333,-1.3333 m -5.3333,1.3333 v 2.6667 h 2.6666 l -2.6666,-2.6667 m -493.3334,3153.3334 v -58.6666 h -1.3333 l -6.6667,25.3333 c -5.652,-6.3522 -13.0659,-15.4316 -17.1995,-22.8929 -3.7077,-6.6924 -3.8651,-14.2861 -9.4374,-20.1628 -7.9043,-8.3356 -22.0446,-12.3834 -32.0298,-17.6676 -10.6307,-5.6257 -20.4718,-13.4359 -30.4402,-20.1501 -11.5256,-7.763 -32.3745,-24.1937 -46.8931,-21.7933 -3.3361,-5.0931 -8.7106,-7.0231 -14.6667,-6.6666 -7.6333,-10.9108 -30.5809,-13.5092 -42.6666,-17.0411 -26.2087,-7.6595 -52.7116,-14.79 -78.8931,-22.4199 -15.1323,-4.4098 -30.4533,-12.2321 -46.4403,-12.539 v -2.6667 l -70.6666,-5.3333 v -2.6667 l -22.6667,-5.3333 c -6.9937,4.8001 -35.1344,-1.9414 -44,-3.4567 -22.5575,-3.8562 -44.2948,-13.0349 -66.6667,-16.9877 -17.3305,-3.0622 -34.6751,-1.2776 -52,-2.6546 -10.7788,-0.8564 -21.3102,-3.4342 -32,-4.7839 -3.2728,-0.413 -9.9149,-2.1119 -12,-0.1171 l -6.6666,-2.6667 -13.3334,-5.3333 v -2.6667 l -8,1.3333 c -3.9505,-5.0595 -10.7347,-5.1478 -16.5659,-6.8437 -15.305,-4.4512 -34.0754,-14.9017 -50.1007,-13.1563 l 1.3333,-2.6666 -2.6667,-1.3334 -5.3333,-4 h -1.3333 c -0.7427,4.4561 -3.6252,5.1673 -2.6667,1.3334 l -8,-2.6667 c -10.4771,7.0804 -25.6609,-6.5387 -34.6667,-10.6667 v 2.6667 l -34.6667,-13.3333 -1.3333,-1.3334 1.3333,-2.6666 -4,1.3333 -12.7407,-9.7038 -35.2593,-31.6295 1.3334,-4 -13.3334,-8 -8,-9.3334 1.3334,-9.3333 -2.6667,-2.6667 c -9.2711,-0.6797 -10.6328,-11.3646 -13.179,-18.6666 -4.7529,-13.6303 -12.9693,-25.1576 -17.8334,-38.6615 -1.8944,-5.2598 -4.4866,-13.2992 -10.3209,-14.6719 l -5.3334,-22.6666 c -4.7092,-3.5319 0.4388,-11.1732 0,-16 -0.4733,-5.2061 -4.1913,-13.5277 -5.3333,-18.6667 -0.2026,-0.9118 4.9522,-8.1908 2.6667,-12 -2.8866,-4.8109 -7.5993,-9.8584 -8,-14.6667 -0.1406,-1.6875 3.4972,-3.8252 4,-5.3333 1.8257,-5.4772 -3.6464,-9.0899 -4,-13.3334 -0.4711,-5.6523 3.4609,-16.1077 -2.6667,-17.3333 1.1392,-3.5963 1.1345,-4.5146 -2.6667,-5.3333 l 1.3334,-16 h -4 l 2.6666,-4 -8,-18.6667 c 5.865,-37.9254 -3.1341,-77.015 -6.4341,-114.6667 -1.3076,-14.9192 3.6084,-28.7265 -4.2325,-42.6666 h 4 c -3.0002,-12.5957 -7.8633,-30.2543 -2.6667,-42.6667 v -1.3333 l -2.6667,-1.3334 v -1.3333 c 3.3227,-3.9821 2.0026,-34.9993 -2.6666,-36 1.6459,-6.8942 3.6129,-16.4075 -2.6667,-21.3333 v -1.3334 l 5.3333,-20 -4.036,-44 -1.2973,-13.3333 -1.3333,-5.3333 c 1.5189,-5.0801 4.6254,-13.7172 0,-17.3334 l 4,-38.6666 h -4 l 1.3333,-53.3334 c -8.6684,-10.0452 -3.8473,-34.1048 -3.7912,-46.6666 0.1286,-28.7517 -0.5748,-58.321 -2.0051,-87.2325 -0.6962,-14.0729 -3.8399,-27.8935 -1.9856,-42.0485 1.3957,-10.6536 -6.5498,-35.5003 -0.2181,-44.0524 l -3.5195,-20.9524 -2.8005,-45.7142 -4.3467,-86.6667 h -1.3333 v 2.6667 h -1.3333 l -8.6153,-68.0053 -12.7181,-117.3281 h 5.3334 v -1.3333 l -4,-1.3334 -1.3334,-16 c -5.6586,-2.8294 -3.7858,-11.6132 0,-10.6666 l -5.3333,-10.6667 5.3333,-1.3333 c -2.3649,-11.1895 1.1225,-17.4212 4,-28 l -1.3333,-12 c 6.8839,-0.3467 6.1454,-6.4255 5.3333,-12 9.2129,-6.4584 13.0578,-22.1888 19.1709,-31.4343 11.1991,-16.9375 27.2371,-29.5618 40.0009,-44.9987 10.1823,-12.3147 19.2453,-30.9759 34.1616,-38.2337 l 14.6666,-22.6667 c 19.4871,-2.0459 32.3646,-29.2981 44.5875,-42.1718 5.053,-5.3223 14.2753,-9.573 16.7459,-16.4948 5.706,-1.0879 20.3023,-15.3946 21.3333,-21.3334 l 1.3333,-1.3333 22.6667,-17.3333 -1.3333,-4 5.3333,1.3333 38.6667,-37.3333 -1.3333,-4 25.3333,-21.3129 37.5535,-36.1396 22.4465,-17.2142 16,-18.6667 c 9.0099,-1.3958 13.27,-9.4772 19.2469,-15.6009 11.0275,-11.2975 23.599,-21.0376 34.6533,-32.3312 36.5073,-37.2974 76.8915,-73.466 118.0998,-105.4012 l -1.3333,-4 4,1.3333 c 9.7451,-17.4065 26.199,-27.7877 40.7716,-40.7871 13.8543,-12.3587 25.0964,-27.1712 40.5617,-37.8795 0.5981,-4.5765 4.534,-3.4434 8,-5.778 6.2207,-4.1901 15.4429,-13.2191 16,-20.8887 l 25.3333,-17.3333 -1.3333,-2.6667 c 6.1533,-2.5062 12.5804,-7.79 13.3333,-14.6667 7.0437,-3.5937 17.3758,-10.542 18.6667,-18.6666 l 8,-6.6667 5.3333,1.3333 21.3334,-21.3333 -1.3334,-2.6667 c 8.2854,-3.4485 22.2438,-13.1686 22.6667,-22.6666 l 5.3333,1.3333 -1.3333,-4 c 6.0737,-2.0872 11.4603,-5.6898 13.3333,-12 8.1555,-1.2529 13.9286,-7.5713 19.6184,-13.181 11.9962,-11.8271 29.6163,-21.5072 36.3816,-37.4857 l 4,1.3334 c 7.3278,-12.432 20.8614,-26.0694 33.3334,-33.3334 v -4 l 12,-5.3333 -1.3334,-5.3333 c 5.5583,0.4723 7.7899,-1.3568 9.3334,-6.6667 l 4,1.3333 c 5.1347,-6.362 12.7851,-16.4225 21.3333,-17.3333 l 17.3333,-18.6667 -1.3333,-4 4,1.3334 1.3333,-6.6667 4,1.3333 42.0596,-39.928 9.9404,-14.7386 32,-24 v -5.3334 c 5.3741,-0.9964 9.2155,-5.4577 10.6667,-10.6667 l 9.3333,-2.6666 17.3334,-20 4,2.6666 22.6666,-26.6666 4,1.3333 20,-25.3333 18.6677,-17.4652 53.3323,-47.8682 -1.3333,-5.3333 h 9.3333 l -2.6666,-4 c 10.0705,-1.0573 15.487,-9.1533 22.6142,-15.6133 16.834,-15.2571 31.7385,-37.7106 50.7191,-49.72 l -1.3333,-4 4,1.3333 22.6666,-28 4,1.3333 2.6667,-6.6666 2.6667,1.3333 29.4404,-30.1533 11.8929,-16.5134 26.8919,-26.2337 7.7748,-11.0996 c 8.1678,-4.5527 19.8356,-14.9277 22.6667,-24 h 4 l 40,-41.3333 4,1.3333 17.3333,-12 c 7.0332,-12.4863 28.6221,-13.6139 33.3333,-28 l 5.3334,1.3333 6.6666,-8 c -68.2365,18.6618 -127.8349,68.9864 -180,114.2911 -82.916,72.0117 -163.6694,146.7636 -244,221.5898 -284.889,265.3679 -578.5501,521.7178 -860,790.7334 -78.835,75.3519 -160.1979,148.2634 -240,222.6 -54.4968,50.764 -113.2766,98.7705 -140.0648,170.7858 -8.5783,23.0612 -4.2515,55.5736 -5.3211,80 -2.4111,55.0638 -2.6141,110.1107 -2.6141,165.3333 0,174.529 -1.3334,349.3535 -1.3334,524 0,112.5219 1.3334,224.849 1.3334,337.3334 0,78.8496 -2.8346,158.7435 2.5473,237.3333 5.6112,81.9365 -2.1011,172.4274 66.786,232.9515 38.0208,33.4053 86.9369,47.9538 136,55.8347 67.9608,10.9157 136.6105,12.5472 205.3334,12.5472 168.4073,0 336.9519,2.7581 505.3333,-1.3138 68.8586,-1.6651 137.9762,0.5651 206.6667,-4.139 19.3099,-1.3223 38.1217,-6.3623 57.3333,-7.8806 M 3751.8995,1821.4833 v 1.3334 h -4 l 4,-1.3334 m 40,37.3334 -1.3333,1.3333 1.3333,-1.3333 m -1336,46.6666 1.3333,1.3334 -1.3333,-1.3334 m 1413.3334,29.3334 -1.3334,1.3333 1.3334,-1.3333 m 73.3333,64 1.3333,1.3333 -1.3333,-1.3333 m 16,16 -1.3333,1.3333 1.3333,-1.3333 m 65.3333,56 1.3334,1.3333 -1.3334,-1.3333 m -1749.3334,9.3333 -1.3333,1.3333 1.3333,-1.3333 m 1796.0001,42.6667 -1.3333,1.3333 1.3333,-1.3333 m 16,13.3333 -1.3333,1.3333 1.3333,-1.3333 m 4,6.6667 2.6667,1.3333 v 1.3334 l -2.6667,-2.6667 m 45.3333,40 1.3334,1.3333 -1.3334,-1.3333 m 21.3334,16 1.3333,1.3333 -1.3333,-1.3333 m 119.111,112.889 0.4446,0.8887 -0.4446,-0.8887 m 30.2223,32.4443 v 2.6667 h -2.6667 v -2.6667 h 2.6667 m 6.6667,8 -1.3334,1.3334 1.3334,-1.3334 m -2373.3334,36 -1.3334,1.3334 1.3334,-1.3334 m 2426.6667,8 1.3333,1.3334 -1.3333,-1.3334 m 7.5557,4.889 -0.4447,0.8887 0.4447,-0.8887 m 17.7776,13.7777 1.3334,1.3333 -1.3334,-1.3333 m 9.3334,9.3333 -1.3334,1.3334 1.3334,-1.3334 m -2501.3334,2.6667 -1.3334,1.3333 1.3334,-1.3333 m 2501.3334,0 -1.3334,1.3333 1.3334,-1.3333 m -2510.6668,7.111 0.4445,0.4447 c -0.6582,0.2194 -1.4757,-0.4447 -0.4445,-0.4447 m 2538.6668,26.2223 -1.3334,1.3334 1.3334,-1.3334 m 4,1.3334 -1.3334,1.3333 1.3334,-1.3333 m 90.6666,84 -1.3333,1.3333 1.3333,-1.3333 m 38.2224,34.2223 -0.4447,0.8887 0.4447,-0.8887 m -2830.2224,3.111 -1.3334,1.3333 1.3334,-1.3333 m 2845.3334,10.6667 -1.3334,1.3333 1.3334,-1.3333 m 7.5556,16.8888 -0.4446,0.889 0.4446,-0.889 m -2915.5557,32.4445 -1.3333,1.3333 1.3333,-1.3333 m 2973.3334,9.3333 -1.3333,1.3334 1.3333,-1.3334 m 93.3334,78.6667 -1.3334,1.3333 1.3334,-1.3333 m 16,12 -1.3334,1.3333 1.3334,-1.3333 m 30.6666,21.3333 1.3334,1.3334 -1.3334,-1.3334 m 25.3334,20.4447 c 1.0306,0 0.2138,0.6634 -0.4444,0.444 l 0.4444,-0.444 m 9.3333,4.8887 -1.3333,1.3333 1.3333,-1.3333 m -3317.3334,4 v 1.3333 h -4 l 4,-1.3333 m 3341.3334,8 1.3333,1.3333 -1.3333,-1.3333 m -3354.6668,2.6666 -1.3333,1.3334 1.3333,-1.3334 m 3405.3335,22.6667 1.3333,2.6667 -1.3333,-2.6667 m -3562.6668,132 -1.3334,1.3333 1.3334,-1.3333 m -142.6667,161.3333 -1.3333,1.3334 1.3333,-1.3334 m -25.3333,84 -1.3334,1.3334 1.3334,-1.3334 m 1417.3334,36.0001 c -7.5668,5.332 -27.9014,2.4752 -37.281,2.7337 -27.0184,0.7448 -54.6401,3.8782 -81.3857,8.0521 -36.5612,5.7063 -76.4912,10.4199 -112,20.608 -34.52,9.9047 -64.0539,28.8164 -95.9476,44.1947 -30.4248,14.6699 -52.4212,35.4033 -72.2367,62.9544 -5.469,7.6042 -17.2368,15.3314 -15.8157,25.4571 h -5.3334 c -3.1429,13.9049 -12.0026,25.3294 -16.6069,38.6666 -6.3411,18.3688 -8.401,39.2816 -7.7614,58.6667 0.8023,24.3115 4.0278,50.2233 12.105,73.3385 5.695,16.2982 16.3701,31.5547 20.8929,47.9753 8.2482,29.946 4.959,65.195 5.9897,96.0195 3.7751,112.8942 -1.2905,225.7233 0.053,338.6667 0.7074,59.4805 4.0998,119.2591 4.1965,178.6667 0.037,22.7174 -3.0241,45.3444 -2.8643,67.999 0.2166,30.7145 3.3975,61.2035 2.6431,92.001 -2.2196,90.6136 1.3528,181.3447 1.3528,272 0,41.6504 -13.4077,86.401 5.3334,125.3333 h 1.3333 c -1.6753,-24.7028 0.3361,-49.8942 -0.2417,-74.6718 -1.895,-81.268 -0.8249,-162.6644 -1.0926,-243.9948 -0.638,-193.8838 -1.3324,-387.5674 -1.3324,-581.3334 0,-79.9069 1.094,-160.3786 6.5474,-240 2.8428,-41.5046 0.995,-86.3093 24.8457,-122.6667 52.0423,-79.332 173.1984,-51.4108 252.6069,-56.4052 48.1959,-3.0316 97.0469,-0.9281 145.3334,-0.9281 78.2474,0 156.5578,-0.4082 234.7191,1.3004 99.9515,2.1853 200.0495,-2.0286 299.9476,1.3187 77.5185,2.5977 184.3502,-18.1093 233.7357,58.7142 19.5,30.334 20.0133,64.0472 22.3834,98.6667 4.5101,65.8799 3.8809,132.5615 3.8809,198.6667 0,233.2835 2.6666,466.7077 2.6666,700 v 244 60 c 0,4.8437 -2.1328,16.5804 2.1381,19.9629 5.6285,4.458 25.789,2.3649 33.0944,2.5176 31.3532,0.6546 62.7405,0.036 94.1009,0.1871 117.2744,0.5655 234.5976,3.9991 352,3.9991 138.8753,0 278.9323,2.9306 417.3333,-6.5472 70.7751,-4.847 140.5485,-2.7761 198.6667,-51.1667 44.3259,-36.9069 69.9792,-85.2262 86.5124,-139.6195 4.6139,-15.1797 10.4101,-30.7802 11.928,-46.6666 5.1257,-53.6482 -1.6709,-109.0401 -0.082,-162.8929 2.8512,-96.6469 0.3086,-193.7448 0.3086,-290.4405 0,-152.4521 1.3333,-304.8418 1.3333,-457.3333 0,-77.3763 -1.3333,-154.6569 -1.3333,-232 0,-22.8373 -0.5348,-45.739 -0.1852,-68.5658 0.2089,-13.6351 2.7304,-30.3115 -1.1482,-43.4342 h -1.3333 l 1.3333,16 c -4.5901,4.0332 -2.5035,14.2434 -2.7151,20 -0.7035,19.1354 -1.2849,38.1406 -1.2849,57.3333 0,75.2246 -1.2298,150.1256 1.2859,225.3333 1.1103,33.1993 -2.375,66.8216 -2.615,100.0052 -0.5572,77.1107 0.5941,153.9525 -1.0556,230.9229 -2.7569,128.6273 1.0514,257.6745 1.0514,386.4053 0,51.4749 2.7569,103.6383 -1.1266,155.0475 -2.3708,31.3822 -1.5264,56.0462 -24.0033,81.513 -11.5957,13.1384 -27.7679,26.2686 -44.2086,32.6814 -12.085,4.7135 -25.4922,5.5224 -37.3282,10.7581 -4.4931,-4.943 -18.9781,-1.6055 -25.3281,-1.2777 -21.4277,1.1055 -44.8222,-12.4925 -65.3385,-8.0556 v -2.6667 c -16.487,4.3389 -33.3848,-1.7002 -49.3386,-5.1699 -15.83,-3.4424 -31.9297,-4.7429 -47.7685,-8.545 -19.7058,-4.7304 -39.1986,-4.9596 -58.8939,-8.1832 -16.6882,-2.7315 -33.1999,-8.4938 -49.8994,-11.0781 -12.7207,-1.9685 -25.8614,-2.0225 -38.0996,-5.6905 h -17.3334 l -70.6666,-8 -20,-5.3333 c -6.8461,0.6868 -10.8334,-4.347 -17.281,-5.3014 -14.1513,-2.0951 -33.0852,2.6315 -45.3857,-6.6986 -12.4235,-0.2275 -28.3994,-6.9212 -40,-1.3333 v -2.6667 l -16,2.6667 c -1.5358,-2.9076 -4.7376,-4.4948 -6.6667,-1.3334 h -1.3333 l -1.3333,-4 -14.6667,-1.3333 -1.3333,-6.6667 -10.6667,2.6667 -2.6667,-1.3333 -29.3333,-9.3334 v -2.6666 c -21.5371,1.165 -38.3395,-18.0401 -60,-13.3334 l -16,-14.6666 -6.6667,2.6666 1.3334,-4 -9.3334,-5.3333 c -11.2207,-0.7266 -17.4668,-8.0046 -22.6666,-17.3333 l -2.6667,-1.3334 c -8.9229,-1.8047 -23.929,-11.1019 -26.6667,-20 l -5.3333,1.3334 v -9.3334 l 2.6667,1.3334 -8,-8 -4,-2.6667 h 2.6666 c -2.5801,-6.6026 -13.6025,-28.3125 -20,-29.3333 l 1.3334,-5.3334 c -10.3656,-7.6497 -18.8552,-27.0582 -18.6667,-40 h -5.3333 l -4,-10.6666 v -1.3334 h 4 l -9.3334,-12 2.6667,-10.6666 -8.8444,-37.1071 -1.8223,-14.893 2.6667,-2.6666 h -4 l 2.6667,-8 v -1.3334 l -9.3334,-26.6666 v -40 l -4,-21.3334 -6.6666,-14.6666 v -1.3334 c 8.4583,-7.7037 1.5169,-26.1614 2.6666,-36 h -2.6666 l 2.6666,-21.3333 -6.6666,-9.3333 c 7.0976,-6.2416 6.373,-13.3128 2.6666,-21.3334 l 4,-1.3333 c -0.7477,-4.4863 -7.8493,-18.9622 -1.3333,-17.3333 l -0.9919,-33.3281 0.9919,-10.6719 v -1.3334 l -2.6667,-6.6666 h -5.3333 l 5.3333,-5.3334 -8,-50.6666 5.3334,-8 -4,-1.3334 c 0.9466,-4.0774 0.8925,-5.6907 -2.6667,-8 l 4,-38.6666 v -1.3334 c -3.5423,-8.2884 -1.9597,-27.7457 1.3333,-36 v -1.3333 c -4.1738,-6.6436 -0.945,-17.7721 -0.7861,-25.3324 0.1959,-9.3268 -2.8952,-18.6038 -2.611,-28.0009 0.2591,-8.5612 2.9642,-15.6602 -3.2695,-22.6667 h 5.3333 l 1.3333,-4 -1.3333,-12 -4,-1.3333 v -1.3334 c 2.7116,-2.358 2.7119,-4.3086 0,-6.6666 l 2.6667,-18.6667 c -4.5837,-7.2533 -3.4099,-26.1113 -3.1029,-34.6862 0.2142,-5.9805 2.9779,-12.832 -2.2305,-17.3138 v -1.3333 -5.3334 -1.3333 c 4.6979,-5.3877 1.5362,-17.1732 0,-24 3.2523,-2.9603 1.3653,-5.1423 -1.3333,-8 l 4,-1.3333 c -0.4509,-8.875 6.4079,-18.6882 -4,-24 l 4,-16 h -2.6667 l -9.3333,-84 -4,1.3333 1.3333,-4 1.3334,-12 -8.1111,-12 -2.9632,-19.7038 -8.9258,-26.9629 c -12.468,-6.0794 -8.6813,-23.1725 -17.3333,-30.6666 -0.2503,-5.5043 -10.6458,-18.7777 -16,-20 v -9.3334 l -1.3333,-5.3333 -13.3334,-6.6667 c 4.2263,-16.9082 -14.331,-25.2034 -18.6666,-38.6666 l -22.6667,-18.6667 c -5.0029,-11.0873 -17.0029,-16.6139 -26.6667,-23.28 -17.7187,-12.222 -34.7871,-24.3326 -52.9329,-35.8899 -31.4889,-20.0554 -65.404,-24.42 -100.7809,-32.9545 -91.0638,-21.969 -181.9916,-29.4847 -275.6719,-31.8418 -31.4011,-0.7897 -63.069,-0.6305 -94.5947,-1.2806 -11.3581,-0.2343 -27.1996,4.7481 -37.3529,-1.4199 l -8,2.6667 c -4.554,-5.2246 -17.6279,-2.5449 -24,-2.18 -21.8236,1.2503 -43.4512,-0.1768 -65.3333,1.8662 -28.7455,2.6836 -58.0048,-2.1094 -86.6719,-0.501 -47.7412,2.6787 -98.0962,9.5954 -145.3281,3.4815 m -1409.3334,6.6666 1.3333,4 -4,-2.6666 2.6667,-1.3334 m 3429.3334,0 1.3333,1.3334 -1.3333,-1.3334 m 2.6667,33.3334 v 4 h 1.3333 l -1.3333,-4 m 0,6.6666 1.3333,1.3334 -1.3333,-1.3334 m 0,2.6667 1.3333,57.3333 h 1.3333 c 0,-14.0895 5.863,-46.0739 -2.6666,-57.3333 m -1193.3334,8 -1.3333,1.3333 1.3333,-1.3333 m 1194.6667,50.6667 v 14.6666 c 3.9681,-3.5221 1.9896,-10.2344 0,-14.6666 m 1.3333,41.3333 -1.3333,1.3333 1.3333,-1.3333 m -984,369.3333 -1.3333,1.3334 1.3333,-1.3334 m 0,26.6667 -1.3333,1.3333 1.3333,-1.3333 m -1.3333,150.6667 -1.3333,4 1.3333,-4 m 4,36 v 4 h 1.3333 l -1.3333,-4 m 2.6667,1.3333 1.3333,1.3333 -1.3333,-1.3333 m -2410.6668,10.6667 -1.3333,1.3333 1.3333,-1.3333 m 2409.3334,36 -1.3333,1.3333 1.3333,-1.3333 m -2404.0001,21.3333 -1.3333,1.3333 1.3333,-1.3333 m 2409.3335,36 1.3333,1.3333 -1.3333,-1.3333 m -1.3334,34.6667 -1.3333,1.3333 1.3333,-1.3333 m 9.3334,146.6666 -1.3334,1.3334 1.3334,-1.3334 m 6.6666,60 -1.3333,1.3334 1.3333,-1.3334 m 28,100.0001 1.3334,1.3333 -1.3334,-1.3333 m 20,45.3333 -1.3333,1.3333 1.3333,-1.3333 m 25.3334,45.3333 -1.3334,1.3334 1.3334,-1.3334 m -2385.3335,9.3334 -1.3333,1.3333 1.3333,-1.3333 m 113.3334,61.3333 -1.3333,1.3333 1.3333,-1.3333 m 84,24 -1.3333,1.3333 1.3333,-1.3333 m 3032.0001,5.3333 1.3333,1.3334 -1.3333,-1.3334 m -2377.3334,177.3334 -1.3334,1.3333 1.3334,-1.3333 m 0,44 v 4 h -1.3334 z"
         id="path4" />
      <path
         style="fill:#800080"
         d="m 930.49151,2785.5251 c 0,0 1581.36819,-1524.7011 1847.70619,-1541.8842 266.3381,-17.1831 2102.8278,1760.7851 2354.0847,1735.4931 268.306,-27.0082 163.5009,-389.0479 163.5009,-389.0479 0,0 -2330.9996,-2245.6071 -2485.6475,-2211.2409 -154.6479,34.3662 -2400.25488,2092.8644 -2343.06508,2273.8099 81.30273,257.2376 463.42079,132.87 463.42079,132.87 z"
         id="path2" />
      <path
         style="fill:#800080;stroke-width:0.949929"
         d="m 1180.8327,3114.3229 c 0,0 1441.2037,-1421.8265 1671.4284,-1492.9332 331.6186,-102.423 1748.2515,1560.2845 1748.2515,1560.2845 0,0 132.5113,1321.5481 8.2581,1411.9498 -124.2532,90.4018 -232.393,133.0981 -313.9283,149.5348 -81.5353,16.4366 -859.1063,0 -859.1063,0 0,0 122.4047,-1153.5481 11.6193,-1243.9498 -110.7853,-90.4018 -1036.5213,-86.0454 -1101.0309,-68.3657 -261.8391,71.7605 -144.882,1298.0834 -144.882,1298.0834 0,0 -858.2018,63.5421 -944.9166,-18.6413 -86.7148,-82.1834 -56.3062,-287.6419 -56.3062,-287.6419 z"
         id="path3" />
    </g>
  </g>
</svg>
